<svg width="30" height="30" viewBox="0 0 30 30" fill="none" xmlns="http://www.w3.org/2000/svg">
<circle cx="15" cy="15" r="15" fill="white"/>
<path fill-rule="evenodd" clip-rule="evenodd" d="M20.0465 15.9176C20.0465 15.7959 19.9982 15.6792 19.9121 15.5932C19.8261 15.5071 19.7094 15.4588 19.5877 15.4588H10.4122C10.2905 15.4588 10.1738 15.5071 10.0878 15.5932C10.0018 15.6792 9.95343 15.7959 9.95343 15.9176V20.9641C9.95331 21.1449 9.98883 21.3239 10.058 21.4909C10.1271 21.658 10.2284 21.8098 10.3563 21.9376C10.4841 22.0654 10.6359 22.1668 10.8029 22.2359C10.97 22.305 11.149 22.3405 11.3298 22.3404H18.6702C19.0354 22.3404 19.3859 22.195 19.6428 21.9367C19.9011 21.6793 20.0465 21.3288 20.0465 20.9641V15.9176ZM20.0465 9.03591C20.0465 8.67072 19.9015 8.32067 19.6432 8.06284C19.5155 7.93495 19.3639 7.8335 19.1969 7.7643C19.0299 7.6951 18.8509 7.65952 18.6702 7.65958H11.3298C10.9646 7.65958 10.6145 7.80455 10.3567 8.06284C10.2288 8.19056 10.1273 8.34224 10.0582 8.50921C9.98895 8.67618 9.95337 8.85516 9.95343 9.03591V13.1649C9.95343 13.5301 10.0984 13.8801 10.3567 14.138C10.4844 14.2659 10.6361 14.3673 10.8031 14.4365C10.97 14.5057 11.149 14.5413 11.3298 14.5412H18.6702C19.0354 14.5412 19.3854 14.3963 19.6432 14.138C19.7711 14.0102 19.8726 13.8586 19.9418 13.6916C20.011 13.5246 20.0466 13.3456 20.0465 13.1649V9.03591ZM13.1649 9.49468C12.806 9.50395 12.4649 9.65302 12.2144 9.91012C11.9638 10.1672 11.8236 10.512 11.8236 10.871C11.8236 11.23 11.9638 11.5748 12.2144 11.8319C12.4649 12.089 12.806 12.2381 13.1649 12.2473C13.5237 12.2381 13.8648 12.089 14.1153 11.8319C14.3659 11.5748 14.5061 11.23 14.5061 10.871C14.5061 10.512 14.3659 10.1672 14.1153 9.91012C13.8648 9.65302 13.5237 9.50395 13.1649 9.49468ZM16.8351 9.49468C16.4762 9.50395 16.1351 9.65302 15.8846 9.91012C15.634 10.1672 15.4938 10.512 15.4938 10.871C15.4938 11.23 15.634 11.5748 15.8846 11.8319C16.1351 12.089 16.4762 12.2381 16.8351 12.2473C17.194 12.2381 17.535 12.089 17.7856 11.8319C18.0361 11.5748 18.1763 11.23 18.1763 10.871C18.1763 10.512 18.0361 10.1672 17.7856 9.91012C17.535 9.65302 17.194 9.50395 16.8351 9.49468ZM20.8856 15.4588H20.9641C21.3293 15.4588 21.6793 15.6038 21.9371 15.862C22.1954 16.1199 22.3404 16.4699 22.3404 16.8351V19.5878C22.3404 19.953 22.1954 20.303 21.9371 20.5608C21.8094 20.6887 21.6577 20.7902 21.4908 20.8594C21.3238 20.9286 21.1448 20.9642 20.9641 20.9641V15.9176C20.9641 15.7565 20.9365 15.6024 20.8856 15.4588ZM9.11433 15.4588H9.03588C8.67069 15.4588 8.32064 15.6038 8.06281 15.862C7.93492 15.9898 7.83347 16.1414 7.76427 16.3084C7.69507 16.4754 7.65948 16.6544 7.65955 16.8351V19.5878C7.65955 19.953 7.80452 20.303 8.06281 20.5608C8.19052 20.6887 8.34221 20.7902 8.50918 20.8594C8.67615 20.9286 8.85513 20.9642 9.03588 20.9641V15.9176C9.03588 15.7565 9.0634 15.6024 9.11433 15.4588Z" fill="url(#paint0_linear_17_991)"/>
<defs>
<linearGradient id="paint0_linear_17_991" x1="7.65955" y1="15" x2="22.3404" y2="15" gradientUnits="userSpaceOnUse">
<stop stop-color="#BD26F9"/>
<stop offset="0.975052" stop-color="#5234E2"/>
</linearGradient>
</defs>
</svg>
