<svg width="35" height="27" viewBox="0 0 35 27" fill="none" xmlns="http://www.w3.org/2000/svg">
<path d="M24 14C23.46 14 23.41 13.82 21.59 12H20C19.2044 12 18.4413 11.6839 17.8787 11.1213C17.3161 10.5587 17 9.79565 17 9V3C17 2.20435 17.3161 1.44129 17.8787 0.87868C18.4413 0.316071 19.2044 0 20 0H32C32.7956 0 33.5587 0.316071 34.1213 0.87868C34.6839 1.44129 35 2.20435 35 3V9C35 9.79565 34.6839 10.5587 34.1213 11.1213C33.5587 11.6839 32.7956 12 32 12H26.41C24.61 13.8 24.55 14 24 14ZM20 2C19.7348 2 19.4804 2.10536 19.2929 2.29289C19.1054 2.48043 19 2.73478 19 3V9C19 9.26522 19.1054 9.51957 19.2929 9.70711C19.4804 9.89464 19.7348 10 20 10H22C22.55 10 22.69 10.27 24 11.59L25.29 10.29C25.3834 10.1973 25.4943 10.124 25.6161 10.0742C25.7379 10.0245 25.8684 9.99924 26 10H32C32.2652 10 32.5196 9.89464 32.7071 9.70711C32.8946 9.51957 33 9.26522 33 9V3C33 2.73478 32.8946 2.48043 32.7071 2.29289C32.5196 2.10536 32.2652 2 32 2H20Z" fill="white"/>
<path d="M22 7C21.8022 7 21.6089 6.94135 21.4444 6.83147C21.28 6.72159 21.1518 6.56541 21.0761 6.38268C21.0004 6.19996 20.9806 5.99889 21.0192 5.80491C21.0578 5.61093 21.153 5.43275 21.2929 5.29289C21.4327 5.15304 21.6109 5.0578 21.8049 5.01922C21.9989 4.98063 22.2 5.00043 22.3827 5.07612C22.5654 5.15181 22.7216 5.27998 22.8315 5.44443C22.9414 5.60888 23 5.80222 23 6C23 6.26522 22.8946 6.51957 22.7071 6.70711C22.5196 6.89464 22.2652 7 22 7ZM26 7C25.8022 7 25.6089 6.94135 25.4444 6.83147C25.28 6.72159 25.1518 6.56541 25.0761 6.38268C25.0004 6.19996 24.9806 5.99889 25.0192 5.80491C25.0578 5.61093 25.153 5.43275 25.2929 5.29289C25.4327 5.15304 25.6109 5.0578 25.8049 5.01922C25.9989 4.98063 26.2 5.00043 26.3827 5.07612C26.5654 5.15181 26.7216 5.27998 26.8315 5.44443C26.9414 5.60888 27 5.80222 27 6C27 6.26522 26.8946 6.51957 26.7071 6.70711C26.5196 6.89464 26.2652 7 26 7ZM30 7C29.8022 7 29.6089 6.94135 29.4444 6.83147C29.28 6.72159 29.1518 6.56541 29.0761 6.38268C29.0004 6.19996 28.9806 5.99889 29.0192 5.80491C29.0578 5.61093 29.153 5.43275 29.2929 5.29289C29.4327 5.15304 29.6109 5.0578 29.8049 5.01922C29.9989 4.98063 30.2 5.00043 30.3827 5.07612C30.5654 5.15181 30.7216 5.27998 30.8315 5.44443C30.9414 5.60888 31 5.80222 31 6C31 6.26522 30.8946 6.51957 30.7071 6.70711C30.5196 6.89464 30.2652 7 30 7Z" fill="white"/>
<path d="M24 27H8C6.93913 27 5.92172 26.5786 5.17157 25.8284C4.42143 25.0783 4 24.0609 4 23V11C4 9.93913 4.42143 8.92172 5.17157 8.17157C5.92172 7.42143 6.93913 7 8 7H15C15.2652 7 15.5196 7.10536 15.7071 7.29289C15.8946 7.48043 16 7.73478 16 8C16 8.26522 15.8946 8.51957 15.7071 8.70711C15.5196 8.89464 15.2652 9 15 9H8C7.46957 9 6.96086 9.21071 6.58579 9.58579C6.21071 9.96086 6 10.4696 6 11V23C6 23.5304 6.21071 24.0391 6.58579 24.4142C6.96086 24.7893 7.46957 25 8 25H24C24.5304 25 25.0391 24.7893 25.4142 24.4142C25.7893 24.0391 26 23.5304 26 23V15C26 14.7348 26.1054 14.4804 26.2929 14.2929C26.4804 14.1054 26.7348 14 27 14C27.2652 14 27.5196 14.1054 27.7071 14.2929C27.8946 14.4804 28 14.7348 28 15V23C28 24.0609 27.5786 25.0783 26.8284 25.8284C26.0783 26.5786 25.0609 27 24 27Z" fill="white"/>
<path d="M5 22H3C2.20435 22 1.44129 21.6839 0.87868 21.1213C0.31607 20.5587 0 19.7956 0 19L0 13C0 12.7348 0.105357 12.4804 0.292893 12.2929C0.48043 12.1054 0.734784 12 1 12H5C5.26522 12 5.51957 12.1054 5.70711 12.2929C5.89464 12.4804 6 12.7348 6 13V21C6 21.2652 5.89464 21.5196 5.70711 21.7071C5.51957 21.8946 5.26522 22 5 22ZM2 14V19C2 19.2652 2.10536 19.5196 2.29289 19.7071C2.48043 19.8946 2.73478 20 3 20H4V14H2Z" fill="white"/>
<path d="M1 20C0.734784 20 0.48043 19.8946 0.292893 19.7071C0.105357 19.5196 0 19.2652 0 19V3C0 2.73478 0.105357 2.48043 0.292893 2.29289C0.48043 2.10536 0.734784 2 1 2C1.26522 2 1.51957 2.10536 1.70711 2.29289C1.89464 2.48043 2 2.73478 2 3V19C2 19.2652 1.89464 19.5196 1.70711 19.7071C1.51957 19.8946 1.26522 20 1 20Z" fill="white"/>
<path d="M14.0002 18C13.8686 18.0007 13.7381 17.9755 13.6163 17.9257C13.4944 17.876 13.3836 17.8026 13.2902 17.71C13.1218 17.5388 12.921 17.4029 12.6995 17.3102C12.478 17.2174 12.2403 17.1696 12.0002 17.1696C11.7601 17.1696 11.5224 17.2174 11.3009 17.3102C11.0794 17.4029 10.8786 17.5388 10.7102 17.71C10.5219 17.8983 10.2665 18.0041 10.0002 18.0041C9.73388 18.0041 9.47849 17.8983 9.29018 17.71C9.10188 17.5217 8.99609 17.2663 8.99609 17C8.99609 16.7337 9.10188 16.4783 9.29018 16.29C10.0099 15.5731 10.9843 15.1705 12.0002 15.1705C13.016 15.1705 13.9905 15.5731 14.7102 16.29C14.8512 16.4298 14.9474 16.6085 14.9865 16.8033C15.0255 16.998 15.0057 17.2 14.9296 17.3834C14.8534 17.5669 14.7243 17.7235 14.5588 17.8333C14.3933 17.9431 14.1988 18.0011 14.0002 18ZM22.1702 18C22.0386 18.0007 21.9081 17.9755 21.7863 17.9257C21.6644 17.876 21.5536 17.8026 21.4602 17.71C21.2918 17.5388 21.091 17.4029 20.8695 17.3102C20.648 17.2174 20.4103 17.1696 20.1702 17.1696C19.9301 17.1696 19.6924 17.2174 19.4709 17.3102C19.2494 17.4029 19.0486 17.5388 18.8802 17.71C18.6919 17.8983 18.4365 18.0041 18.1702 18.0041C17.9039 18.0041 17.6485 17.8983 17.4602 17.71C17.2719 17.5217 17.1661 17.2663 17.1661 17C17.1661 16.7337 17.2719 16.4783 17.4602 16.29C18.1799 15.5731 19.1543 15.1705 20.1702 15.1705C21.186 15.1705 22.1605 15.5731 22.8802 16.29C23.0212 16.4298 23.1174 16.6085 23.1565 16.8033C23.1955 16.998 23.1757 17.2 23.0996 17.3834C23.0234 17.5669 22.8943 17.7235 22.7288 17.8333C22.5633 17.9431 22.3688 18.0011 22.1702 18Z" fill="white"/>
<path d="M19 23H13C12.7348 23 12.4804 22.8946 12.2929 22.7071C12.1054 22.5196 12 22.2652 12 22C12 21.7348 12.1054 21.4804 12.2929 21.2929C12.4804 21.1054 12.7348 21 13 21H19C19.2652 21 19.5196 21.1054 19.7071 21.2929C19.8946 21.4804 20 21.7348 20 22C20 22.2652 19.8946 22.5196 19.7071 22.7071C19.5196 22.8946 19.2652 23 19 23Z" fill="white"/>
</svg>
