<svg width="17" height="17" viewBox="0 0 17 17" fill="none" xmlns="http://www.w3.org/2000/svg">
<path d="M16.5595 14.4851C17.1468 15.073 17.1468 15.9875 16.5595 16.5754C16.2658 16.8694 15.9069 17 15.5154 17C15.1238 17 14.7649 16.8694 14.4712 16.5754L8.5 10.5985L2.52879 16.5754C2.23513 16.8694 1.8762 17 1.48465 17C1.09309 17 0.734165 16.8694 0.440499 16.5754C-0.146833 15.9875 -0.146833 15.073 0.440499 14.4851L6.41171 8.50817L0.440499 2.53122C-0.146833 1.94332 -0.146833 1.02882 0.440499 0.440922C1.02783 -0.146974 1.94146 -0.146974 2.52879 0.440922L8.5 6.41787L14.4712 0.440922C15.0585 -0.146974 15.9722 -0.146974 16.5595 0.440922C17.1468 1.02882 17.1468 1.94332 16.5595 2.53122L10.5883 8.50817L16.5595 14.4851Z" fill="white"/>
</svg>
