<svg width="21" height="21" viewBox="0 0 21 21" fill="none" xmlns="http://www.w3.org/2000/svg">
<path d="M21 0.954545V5.72727C21 6.25227 20.5705 6.68182 20.0455 6.68182C19.5205 6.68182 19.0909 6.25227 19.0909 5.72727V3.26932L13.5545 8.80568C13.3636 8.99659 13.125 9.09204 12.8864 9.09204C12.6477 9.09204 12.4091 8.99659 12.2182 8.80568C11.8364 8.42386 11.8364 7.82727 12.2182 7.44545L17.7307 1.90909H15.2727C14.7477 1.90909 14.3182 1.47955 14.3182 0.954545C14.3182 0.429545 14.7477 0 15.2727 0H20.0455C20.308 0 20.5466 0.0954546 20.7136 0.286364C20.9045 0.453409 21 0.692045 21 0.954545ZM20.0455 14.3182C19.5205 14.3182 19.0909 14.7477 19.0909 15.2727V17.7307L13.65 12.3375C13.2682 11.9557 12.6477 11.9557 12.2659 12.3375C11.8841 12.7193 11.8841 13.3159 12.242 13.6977L17.6352 19.0909H15.1773C14.6523 19.0909 14.2227 19.5205 14.2227 20.0455C14.2227 20.5705 14.6523 21 15.1773 21H19.95C20.2125 21 20.4989 20.9045 20.6659 20.7136C20.8568 20.5227 21 20.2841 21 20.0455V15.2727C21 14.7477 20.5705 14.3182 20.0455 14.3182ZM7.35 12.2898L1.90909 17.7307V15.2727C1.90909 14.7477 1.47955 14.3182 0.954545 14.3182C0.429545 14.3182 0 14.7477 0 15.2727V20.0455C0 20.308 0.0954546 20.5466 0.286364 20.7136C0.477273 20.9045 0.715909 21 0.978409 21H5.75114C6.27614 21 6.70568 20.5705 6.70568 20.0455C6.70568 19.5205 6.27614 19.0909 5.75114 19.0909H3.26932L8.71023 13.65C9.09204 13.2682 9.06818 12.6716 8.71023 12.2898C8.35227 11.908 7.73182 11.908 7.35 12.2898ZM3.26932 2.00455H5.72727C6.25227 2.00455 6.68182 1.575 6.68182 1.05C6.68182 0.525 6.25227 0.0954546 5.72727 0.0954546H0.954545C0.692045 0.0954546 0.453409 0.190909 0.286364 0.381818C0.0954546 0.548864 0 0.7875 0 1.05V5.82273C0 6.34773 0.429545 6.77727 0.954545 6.77727C1.47955 6.77727 1.90909 6.34773 1.90909 5.82273V3.34091L7.42159 8.85341C7.6125 9.04432 7.85114 9.13977 8.08977 9.13977C8.32841 9.13977 8.56705 9.04432 8.75795 8.85341C9.13977 8.47159 9.13977 7.875 8.75795 7.49318L3.26932 2.00455Z" fill="white"/>
</svg>
