<svg width="269" height="159" viewBox="0 0 269 159" fill="none" xmlns="http://www.w3.org/2000/svg">
<path d="M62.7241 129.034H3.68965C2.7111 129.034 1.77262 128.646 1.08067 127.954C0.38873 127.262 0 126.323 0 125.345C0 124.366 0.38873 123.428 1.08067 122.736C1.77262 122.044 2.7111 121.655 3.68965 121.655H62.7241C63.7027 121.655 64.6411 122.044 65.3331 122.736C66.025 123.428 66.4137 124.366 66.4137 125.345C66.4137 126.323 66.025 127.262 65.3331 127.954C64.6411 128.646 63.7027 129.034 62.7241 129.034ZM66.4137 110.586H29.5172C28.5387 110.586 27.6002 110.197 26.9082 109.506C26.2163 108.814 25.8276 107.875 25.8276 106.897C25.8276 105.918 26.2163 104.979 26.9082 104.288C27.6002 103.596 28.5387 103.207 29.5172 103.207H66.4137C67.3923 103.207 68.3308 103.596 69.0227 104.288C69.7147 104.979 70.1034 105.918 70.1034 106.897C70.1034 107.875 69.7147 108.814 69.0227 109.506C68.3308 110.197 67.3923 110.586 66.4137 110.586ZM70.1034 92.1379H51.6551C50.6766 92.1379 49.7381 91.7492 49.0462 91.0572C48.3542 90.3653 47.9655 89.4268 47.9655 88.4483C47.9655 87.4697 48.3542 86.5312 49.0462 85.8393C49.7381 85.1473 50.6766 84.7586 51.6551 84.7586H70.1034C71.082 84.7586 72.0204 85.1473 72.7124 85.8393C73.4043 86.5312 73.7931 87.4697 73.7931 88.4483C73.7931 89.4268 73.4043 90.3653 72.7124 91.0572C72.0204 91.7492 71.082 92.1379 70.1034 92.1379ZM141.867 111.767C142.492 112.212 143.24 112.451 144.007 112.451C144.774 112.451 145.522 112.212 146.147 111.767L205.698 71.5497C203.691 70.5493 201.483 70.0194 199.241 70H103.31C100.995 70.0111 98.7169 70.5807 96.6689 71.6603L141.867 111.767ZM129.913 111.029L91.0975 76.5676C89.4402 78.9777 88.5525 81.8337 88.5517 84.7586L81.1724 143.793C81.1966 146.567 82.0023 149.278 83.4968 151.615L129.913 111.029Z" fill="url(#paint0_linear_36_2377)"/>
<path d="M152.567 116.194L150.427 117.596C148.563 119.021 146.279 119.787 143.933 119.773C141.487 119.766 139.113 118.948 137.181 117.449L135.484 115.973L88.8833 156.559C91.0206 157.821 93.4487 158.508 95.9305 158.551H191.862C194.333 158.542 196.761 157.893 198.909 156.67L152.567 116.194Z" fill="url(#paint1_linear_36_2377)"/>
<path d="M211.454 76.6047L158.876 111.915L204.296 151.615C205.791 149.278 206.596 146.567 206.621 143.793L214 84.7589C213.994 81.8461 213.106 79.0035 211.454 76.6047Z" fill="url(#paint2_linear_36_2377)"/>
<path d="M135.621 52.3612L132.935 52.4165C132.187 51.7124 131.364 49.4402 130.897 46.6541C130.429 43.8679 130.473 41.4196 130.937 40.5007L133.473 39.5675C133.177 40.1381 133.037 41.255 133.071 42.6765C133.102 43.85 133.217 45.0211 133.416 46.1809C133.604 47.3368 133.876 48.479 134.23 49.5983C134.668 50.9386 135.166 51.9379 135.621 52.3612ZM151.935 40.115C151.718 38.154 152.254 36.1957 153.435 34.6334C154.616 33.071 156.356 32.0202 158.304 31.6921C160.15 31.4562 161.905 31.9548 163.451 32.3986C164.939 32.8269 166.35 33.2287 167.552 32.9034C169.777 32.3013 170.85 29.38 171.213 28.1475C171.433 27.3874 171.61 26.6184 171.799 25.7968C172.234 23.88 172.687 21.9004 173.744 20.055C175.492 17.01 179.425 14.7574 182.731 16.4252L181.121 19.5661C179.746 18.8728 177.668 20.1527 176.741 21.7663C175.951 23.1455 175.57 24.7803 175.18 26.5179C174.99 27.3541 174.792 28.2207 174.541 29.0781C173.425 32.9011 171.182 35.5279 168.39 36.2824C166.255 36.8619 164.226 36.2796 162.436 35.7654C161.091 35.3795 159.821 35.0153 158.678 35.1625C157.681 35.3593 156.795 35.9118 156.186 36.7168C155.578 37.5217 155.289 38.524 155.373 39.5363L151.935 40.115Z" fill="#FFC200"/>
<path d="M255.059 52.545C253.576 52.3245 252.108 52.0111 250.665 51.6067C248.595 51.0651 246.429 50.5063 244.455 50.7064L244 45.877C246.787 45.5941 249.454 46.2875 251.806 46.9118C253.876 47.4534 256.043 48.0088 258.016 47.8087C259.423 47.6292 260.762 47.0933 261.905 46.2518C263.047 45.4103 263.956 44.291 264.546 43L268.792 45.0525C266.929 49.2231 262.876 52.2035 258.474 52.6416C257.336 52.7417 256.19 52.7093 255.059 52.545Z" fill="#197AD1"/>
<path d="M222.697 68.0138C221.226 67.7071 219.775 67.3084 218.354 66.8202C216.284 66.1614 214.18 65.4783 212.19 65.5611L212 60.7006C214.794 60.5799 217.423 61.4251 219.737 62.1702C221.807 62.829 223.908 63.5086 225.898 63.4224C227.312 63.327 228.678 62.8703 229.865 62.096C231.052 61.3216 232.02 60.2556 232.677 59L236.816 61.2974C234.747 65.3507 230.524 68.0966 226.102 68.2863C224.96 68.3276 223.818 68.2362 222.697 68.0138Z" fill="#E0445A"/>
<path d="M175.241 55.2899C176.861 52.2999 176.986 49.2322 175.521 48.438C174.055 47.6439 171.553 49.424 169.933 52.414C168.313 55.404 168.188 58.4717 169.654 59.2658C171.12 60.06 173.621 58.2799 175.241 55.2899Z" fill="#E0445A"/>
<path d="M233.319 29.6325C235.323 28.1225 236.121 25.8018 235.102 24.4492C234.083 23.0966 231.632 23.2241 229.628 24.7342C227.624 26.2442 226.826 28.5648 227.846 29.9174C228.865 31.2701 231.316 31.1425 233.319 29.6325Z" fill="#E0445A"/>
<path d="M221.12 48.3391C222.521 47.2832 223.079 45.6599 222.366 44.7135C221.653 43.7672 219.939 43.856 218.537 44.912C217.136 45.9679 216.578 47.5912 217.291 48.5376C218.004 49.484 219.719 49.3951 221.12 48.3391Z" fill="#197AD1"/>
<path d="M150.538 55.9192C152.976 55.4705 154.7 53.7397 154.39 52.0534C154.079 50.3671 151.851 49.3638 149.414 49.8125C146.976 50.2612 145.252 51.992 145.562 53.6783C145.872 55.3646 148.1 56.3679 150.538 55.9192Z" fill="#E0445A"/>
<path d="M232.704 101.955C229.486 103.635 226.15 103.48 225.232 101.61C224.315 99.7408 226.198 96.85 229.417 95.1666C232.635 93.4832 235.971 93.6419 236.885 95.5116C237.799 97.3812 235.923 100.272 232.704 101.955Z" fill="#E0445A"/>
<path d="M243.883 82.8643C241.346 84.8374 238.485 86.3548 235.428 87.3488L231.948 80.8394C231.948 80.8394 236.663 78.8628 241.779 77L243.883 82.8643ZM234.47 119.485C231.413 120.401 228.219 120.769 225.035 120.572L224 113.203C224 113.203 229.081 113.093 234.501 113.231L234.47 119.485Z" fill="#FFC200"/>
<path d="M190 36.6588C190.147 33.3488 190.838 30.0856 192.046 27L199.093 28.3488C197.253 31.4978 195.871 34.893 194.988 38.4319L190 36.6588Z" fill="#E0445A"/>
<path d="M214 13.3898C214.445 10.1219 215.425 6.94956 216.901 4L223.8 6.03526C222.299 9.33075 220.628 12.5466 218.795 15.67L214 13.3898Z" fill="#FFC200"/>
<path d="M195.448 61.4312C194.914 59.6514 194.856 57.7628 195.28 55.9537C195.704 54.1446 196.594 52.4781 197.863 51.1203C198.871 50.135 199.997 49.2777 201.216 48.5676C201.86 48.1817 202.481 47.7578 203.075 47.2982C204.13 46.4496 204.782 45.2491 204.562 44.5661L208.994 43C209.891 45.7355 208.694 48.9333 205.945 51.1479C205.212 51.719 204.446 52.2465 203.651 52.7278C202.759 53.2407 201.929 53.8541 201.178 54.5561C200.524 55.2757 200.064 56.1496 199.841 57.0957C199.617 58.0419 199.638 59.0292 199.901 59.9651L195.448 61.4312Z" fill="#197AD1"/>
<defs>
<linearGradient id="paint0_linear_36_2377" x1="0" y1="110.808" x2="205.698" y2="110.808" gradientUnits="userSpaceOnUse">
<stop stop-color="#BD26F9"/>
<stop offset="0.975052" stop-color="#5234E2"/>
</linearGradient>
<linearGradient id="paint1_linear_36_2377" x1="88.8833" y1="137.262" x2="198.909" y2="137.262" gradientUnits="userSpaceOnUse">
<stop stop-color="#BD26F9"/>
<stop offset="0.975052" stop-color="#5234E2"/>
</linearGradient>
<linearGradient id="paint2_linear_36_2377" x1="158.876" y1="114.11" x2="214" y2="114.11" gradientUnits="userSpaceOnUse">
<stop stop-color="#BD26F9"/>
<stop offset="0.975052" stop-color="#5234E2"/>
</linearGradient>
</defs>
</svg>
